<?xml version="1.0" encoding="UTF-8"?>
<svg viewBox="0 0 40 40" version="1.1" xmlns="http://www.w3.org/2000/svg" xmlns:xlink="http://www.w3.org/1999/xlink">
    <title>C9C0D813-F1AD-4118-9836-39D877C739C2</title>
    <g stroke="none" stroke-width="1" fill="none" fill-rule="evenodd">
        <g transform="translate(-788.000000, -702.000000)">
            <g transform="translate(59.000000, 285.000000)">
                <g transform="translate(668.000000, 363.000000)">
                    <g transform="translate(61.000000, 54.000000)">
                        <circle fill="#121029" cx="20" cy="20" r="20"></circle>
                        <g transform="translate(11.000000, 12.000000)" fill="#FFFFFF" fill-rule="nonzero">
                            <g>
                                <path d="M19,2.00466965 C18.3214286,2.29105103 17.5071429,2.57743241 16.6928571,2.57743241 C17.5071429,2.00466965 18.1857143,1.28871621 18.4571429,0.286381379 C17.6428571,0.715953448 16.8285714,1.14552552 16.0142857,1.28871621 C15.3357143,0.429572069 14.25,0 13.1642857,0 C10.9928571,0 9.22857143,1.86147896 9.22857143,4.15253 C9.22857143,4.43891138 9.22857143,4.72529275 9.36428571,5.15486482 C6.10714286,5.01167413 3.25714286,3.29338586 1.35714286,0.859144137 C1.08571429,1.4319069 0.814285714,2.14786034 0.814285714,3.00700448 C0.814285714,4.43891138 1.49285714,5.72762758 2.57857143,6.44358103 C1.9,6.44358103 1.35714286,6.15719965 0.814285714,5.87081827 L0.814285714,5.87081827 C0.814285714,7.87548792 2.17142857,9.5937762 3.93571429,9.88015758 C3.66428571,10.0233483 3.25714286,10.0233483 2.85,10.0233483 C2.57857143,10.0233483 2.30714286,10.0233483 2.17142857,10.0233483 C2.71428571,11.5984459 4.07142857,12.8871621 5.83571429,12.8871621 C4.47857143,14.0326876 2.85,14.6054503 0.95,14.6054503 C0.678571429,14.6054503 0.271428571,14.6054503 0,14.6054503 C1.76428571,15.7509758 3.8,16.4669293 5.97142857,16.4669293 C13.1642857,16.4669293 17.1,10.166539 17.1,4.72529275 C17.1,4.58210207 17.1,4.43891138 17.1,4.15253 C17.9142857,3.57976724 18.4571429,2.86381379 19,2.00466965 Z"></path>
                            </g>
                        </g>
                    </g>
                </g>
            </g>
        </g>
    </g>
</svg>
