<?xml version="1.0" encoding="UTF-8"?>
<svg viewBox="0 0 40 40" version="1.1" xmlns="http://www.w3.org/2000/svg" xmlns:xlink="http://www.w3.org/1999/xlink">
    <title>5CB70A48-391F-4A36-B267-BF364C1656CD</title>
    <g stroke="none" stroke-width="1" fill="none" fill-rule="evenodd">
        <g transform="translate(-908.000000, -702.000000)">
            <g transform="translate(59.000000, 285.000000)">
                <g transform="translate(668.000000, 363.000000)">
                    <g transform="translate(181.000000, 54.000000)">
                        <circle fill="#121029" cx="20" cy="20" r="20"></circle>
                        <path d="M28,12.4 C27.4,12.2 23.7,12 20,12 C16.3,12 12.6,12.2 12,12.4 C10.4,12.9 10,16.4 10,20 C10,23.6 10.4,27.1 12,27.6 C12.6,27.8 16.3,28 20,28 C23.7,28 27.4,27.8 28,27.6 C29.6,27.1 30,23.6 30,20 C30,16.4 29.6,12.9 28,12.4 L28,12.4 Z M18,24.5 L18,15.5 L24,20 L18,24.5 L18,24.5 Z" fill="#FFFFFF"></path>
                    </g>
                </g>
            </g>
        </g>
    </g>
</svg>
